<svg width="120" height="120" viewBox="0 0 120 120" xmlns="http://www.w3.org/2000/svg">
  <rect width="120" height="120" rx="24" fill="#1B1F5C"/>
  <rect x="8" y="8" width="104" height="104" rx="20" fill="none" stroke="rgba(245,165,36,0.2)" stroke-width="1"/>
  <!-- Rocket -->
  <path d="M60 28 C60 28 72 38 72 54 L72 70 L60 76 L48 70 L48 54 C48 38 60 28 60 28Z" fill="none" stroke="#F5A524" stroke-width="2" stroke-linejoin="round"/>
  <circle cx="60" cy="52" r="6" fill="#F5A524" opacity="0.9"/>
  <!-- fins -->
  <path d="M48 66 L40 74 L48 70Z" fill="#2EAA8A"/>
  <path d="M72 66 L80 74 L72 70Z" fill="#2EAA8A"/>
  <!-- flame -->
  <path d="M55 76 Q57 82 60 84 Q63 82 65 76" fill="none" stroke="rgba(245,165,36,0.6)" stroke-width="1.5" stroke-linecap="round"/>
  <!-- stars -->
  <circle cx="36" cy="36" r="1.5" fill="rgba(255,255,255,0.5)"/>
  <circle cx="84" cy="42" r="1.5" fill="rgba(255,255,255,0.5)"/>
  <circle cx="42" cy="56" r="1" fill="rgba(255,255,255,0.3)"/>
  <text x="60" y="98" text-anchor="middle" font-size="8.5" fill="rgba(255,255,255,0.5)" font-family="Arial" letter-spacing="0.5">AI + CAREER</text>
</svg>
