<svg width="120" height="120" viewBox="0 0 120 120" xmlns="http://www.w3.org/2000/svg">
  <rect width="120" height="120" rx="24" fill="#1B1F5C"/>
  <rect x="8" y="8" width="104" height="104" rx="20" fill="none" stroke="rgba(46,170,138,0.3)" stroke-width="1"/>
  <!-- Three people -->
  <circle cx="40" cy="40" r="8" fill="none" stroke="rgba(255,255,255,0.5)" stroke-width="1.8"/>
  <circle cx="60" cy="36" r="9" fill="none" stroke="#ffffff" stroke-width="2"/>
  <circle cx="80" cy="40" r="8" fill="none" stroke="rgba(255,255,255,0.5)" stroke-width="1.8"/>
  <!-- Bodies -->
  <path d="M24 72 Q24 58 40 58 Q56 58 56 72" fill="none" stroke="rgba(255,255,255,0.4)" stroke-width="1.8" stroke-linecap="round"/>
  <path d="M40 72 Q40 56 60 56 Q80 56 80 72" fill="none" stroke="#ffffff" stroke-width="2" stroke-linecap="round"/>
  <path d="M64 72 Q64 58 80 58 Q96 58 96 72" fill="none" stroke="rgba(255,255,255,0.4)" stroke-width="1.8" stroke-linecap="round"/>
  <!-- upward arrow badge -->
  <circle cx="60" cy="36" r="4" fill="#2EAA8A"/>
  <polyline points="57,37 60,33 63,37" fill="none" stroke="#ffffff" stroke-width="1.5" stroke-linecap="round" stroke-linejoin="round"/>
  <text x="60" y="98" text-anchor="middle" font-size="7" fill="rgba(255,255,255,0.5)" font-family="Arial" letter-spacing="0.5">WORKFORCE DEV</text>
</svg>
